<?xml version="1.0" standalone="no"?>
<!DOCTYPE svg PUBLIC "-//W3C//DTD SVG 20010904//EN"
 "http://www.w3.org/TR/2001/REC-SVG-20010904/DTD/svg10.dtd">
<svg version="1.0" xmlns="http://www.w3.org/2000/svg"
 width="836.000000pt" height="928.000000pt" viewBox="0 0 836.000000 928.000000"
 preserveAspectRatio="xMidYMid meet">

<g transform="translate(0.000000,928.000000) scale(0.100000,-0.100000)"
fill="#000000" stroke="none">
<path d="M0 4640 l0 -4640 4180 0 4180 0 0 4640 0 4640 -4180 0 -4180 0 0
-4640z m8020 4351 c0 -5 -9 -13 -20 -16 -11 -3 -20 -11 -20 -16 0 -6 -5 -7
-11 -3 -6 3 -14 2 -18 -3 -3 -6 -26 -14 -51 -18 -42 -6 -44 -6 -25 9 11 8 30
16 42 16 13 0 37 9 55 20 36 22 48 25 48 11z m115 -1 c-40 -10 -75 -12 -75 -2
0 4 24 8 53 9 42 1 46 0 22 -7z m76 -8 c-7 -2 -18 1 -23 6 -8 8 -4 9 13 5 13
-4 18 -8 10 -11z m54 -52 l20 -25 -22 19 c-13 11 -23 24 -23 29 0 6 1 8 3 6 1
-2 11 -15 22 -29z m-412 -33 c-3 -4 -11 -6 -19 -3 -8 3 -14 1 -14 -4 0 -6 -13
-10 -29 -10 -17 0 -33 -5 -36 -10 -10 -16 -81 -50 -107 -51 -22 -1 -22 -1 2
-9 14 -4 19 -8 12 -9 -14 -1 -75 -42 -80 -53 -2 -5 -8 -8 -13 -8 -6 0 1 15 15
33 15 19 26 39 26 45 0 7 11 12 24 12 13 0 48 14 79 30 31 17 66 30 77 30 11
0 20 5 20 11 0 6 7 9 15 5 10 -3 15 1 15 12 0 14 2 15 9 2 6 -8 7 -18 4 -23z
m416 -209 c-7 -13 -13 -31 -14 -40 -3 -38 -15 -29 -15 11 0 28 5 44 15 47 9 4
16 21 17 43 l1 36 4 -37 c2 -20 -1 -47 -8 -60z m-709 32 c0 -5 -11 -12 -25
-16 -14 -3 -25 -10 -25 -15 0 -5 -9 -9 -19 -9 -10 0 -21 -7 -25 -15 -3 -8 -9
-15 -13 -14 -22 4 -33 -3 -33 -20 0 -13 -11 -23 -34 -31 -19 -6 -56 -31 -82
-55 -26 -25 -54 -45 -62 -45 -12 0 -12 -3 -2 -15 10 -12 10 -15 -4 -15 -9 0
-16 -4 -16 -10 0 -5 -7 -10 -15 -10 -7 0 -19 -8 -24 -17 -14 -25 -14 2 1 30 6
12 14 29 18 37 4 8 15 15 24 15 17 0 65 35 99 73 11 12 27 22 34 22 8 0 26 13
41 29 25 27 132 91 153 91 5 0 9 -4 9 -10z m680 -139 c0 -4 -22 -35 -49 -69
-27 -33 -51 -67 -54 -74 -2 -8 -8 -9 -13 -4 -5 5 -4 11 4 13 6 3 12 11 12 19
0 8 5 14 10 14 6 0 14 8 17 17 4 10 17 27 30 39 13 12 23 31 23 43 0 12 4 19
10 16 6 -3 10 -10 10 -14z m-1080 -170 c0 -5 -7 -11 -15 -15 -8 -3 -15 -12
-15 -21 0 -8 -7 -15 -15 -15 -22 0 -66 -30 -59 -41 3 -5 -1 -9 -9 -9 -8 0 -31
-16 -51 -36 -36 -36 -46 -51 -24 -38 7 4 8 3 4 -4 -4 -7 -14 -12 -23 -12 -21
0 -53 -29 -53 -47 0 -12 -12 -17 -32 -14 -5 0 -8 -8 -8 -19 0 -11 -4 -20 -10
-20 -5 0 -10 4 -10 10 0 5 -7 7 -15 4 -8 -4 -15 -12 -15 -19 0 -7 -7 -18 -15
-25 -8 -7 -12 -17 -8 -23 3 -6 1 -7 -6 -3 -15 10 -52 -30 -45 -49 6 -14 -15
-25 -42 -21 -21 3 -32 26 -12 26 13 0 60 42 223 199 33 32 70 63 82 70 12 6
25 20 28 32 4 11 9 18 12 15 3 -2 15 5 27 18 21 22 84 64 99 65 4 1 7 -3 7 -8z
m973 -6 c-3 -9 -8 -14 -10 -11 -3 3 -2 9 2 15 9 16 15 13 8 -4z m-73 -98 c-16
-22 -30 -45 -30 -50 0 -9 -36 -54 -90 -116 -12 -12 -24 -20 -28 -17 -3 4 6 18
21 32 24 22 32 42 28 67 -1 4 7 7 16 5 12 -2 19 4 21 20 2 12 8 22 13 22 5 0
9 7 9 15 0 8 11 22 25 31 14 9 25 23 25 31 0 8 5 11 10 8 7 -4 -1 -23 -20 -48z
m-3388 -81 c9 -10 28 -12 66 -9 35 4 52 2 52 -6 0 -7 20 -11 53 -11 29 0 47
-4 40 -8 -7 -5 -28 -7 -45 -6 -18 2 -50 4 -70 5 -21 2 -38 5 -38 8 0 4 -26 5
-57 4 -47 -1 -52 0 -28 7 27 7 26 8 -15 7 -32 -1 -50 -7 -62 -22 -12 -14 -17
-16 -18 -6 0 11 -4 11 -18 -2 -10 -10 -22 -14 -27 -10 -4 5 -5 2 -1 -5 8 -13
-30 -51 -51 -52 -7 0 -13 -5 -13 -11 0 -5 -4 -8 -9 -5 -5 3 -11 -1 -15 -9 -3
-8 -12 -15 -21 -15 -8 0 -15 -4 -15 -10 0 -5 -6 -10 -13 -10 -8 0 -24 -11 -37
-25 -12 -13 -27 -22 -32 -19 -16 10 36 54 103 89 48 25 69 42 79 64 7 18 20
31 29 31 10 0 35 9 57 20 46 23 88 25 106 6z m451 -58 c9 -5 34 -6 55 -3 27 4
32 3 17 -4 -14 -7 2 -10 60 -10 107 -1 155 -10 155 -28 0 -11 -8 -13 -32 -8
-18 4 -37 11 -42 15 -4 5 -21 4 -37 -2 -16 -6 -44 -8 -62 -5 -96 17 -129 25
-139 35 -7 7 -45 12 -91 12 -48 0 -76 4 -72 10 7 11 161 2 188 -12z m425 -42
c7 -4 20 -5 29 -2 15 6 85 -14 126 -35 10 -5 22 -7 28 -3 6 3 46 3 89 -1 61
-5 77 -10 73 -21 -3 -8 -15 -14 -27 -14 -17 0 -18 2 -6 10 10 7 -13 10 -75 11
-111 2 -112 3 -121 12 -12 12 -26 8 -18 -5 6 -10 4 -10 -7 -2 -8 6 -32 15 -54
19 -22 4 -45 11 -52 16 -6 6 -34 10 -62 11 -29 0 -48 4 -45 9 6 11 103 7 122
-5z m2362 -20 c0 -2 -11 -13 -24 -25 -18 -17 -26 -19 -31 -10 -5 8 -4 10 3 5
7 -4 13 -2 13 3 1 10 3 19 8 36 1 4 31 -5 31 -9z m-1795 -59 c11 -6 42 -9 69
-8 26 1 62 -1 80 -5 l31 -8 -30 -6 c-17 -3 13 -7 70 -8 55 -2 114 -4 130 -6
17 -2 54 -4 83 -4 29 -1 51 -6 48 -11 -3 -5 6 -8 19 -8 14 0 28 3 31 8 8 14
24 11 24 -5 0 -28 -53 -30 -108 -3 -16 8 -25 8 -34 -1 -7 -7 -23 -11 -37 -11
-24 1 -24 2 4 8 23 6 12 9 -52 15 -45 4 -87 5 -92 1 -6 -3 -11 -1 -11 5 0 8
-14 9 -44 5 -28 -5 -52 -2 -67 6 -13 6 -45 11 -72 10 -30 -1 -53 4 -62 13 -9
9 -32 13 -65 11 -31 -2 -62 3 -78 12 -25 13 -20 14 58 8 47 -4 94 -12 105 -18z
m1740 -7 c-3 -5 -11 -10 -16 -10 -6 0 -7 5 -4 10 3 6 11 10 16 10 6 0 7 -4 4
-10z m-70 -85 c-36 -36 -73 -81 -81 -100 -14 -34 -45 -47 -59 -25 -3 6 1 10 9
10 9 0 16 6 16 14 0 7 9 16 20 19 10 3 27 21 36 40 9 19 27 40 40 46 13 6 24
17 24 25 0 11 26 27 58 35 2 1 -27 -28 -63 -64z m-3403 -49 c15 -3 34 -14 44
-23 21 -21 61 -43 79 -43 7 0 15 -5 17 -12 2 -6 19 -17 38 -23 41 -14 49 -30
16 -33 -15 -1 -36 10 -56 28 -18 16 -54 42 -81 56 -27 15 -49 31 -49 37 0 5
-9 7 -19 4 -13 -3 -29 5 -48 26 l-28 30 30 -20 c17 -11 42 -23 57 -27z m3268
-96 c0 -5 -5 -10 -10 -10 -15 0 -69 -63 -70 -81 0 -23 -11 -30 -26 -18 -9 8
-16 4 -25 -13 -19 -37 -60 -71 -71 -60 -7 7 -3 12 8 16 11 3 28 19 39 35 10
17 30 34 42 40 13 6 23 17 23 26 0 8 5 15 10 15 6 0 10 8 10 18 0 13 2 14 9 3
6 -9 11 -10 15 -2 4 6 5 15 2 20 -4 5 0 12 6 14 22 9 38 7 38 -3z m-3016 -52
c6 -4 22 -8 36 -8 22 -1 23 -2 7 -11 -13 -8 -27 -7 -48 1 -33 14 -31 12 -22
36 5 14 8 15 11 3 3 -7 10 -17 16 -21z m119 -47 c20 -9 34 -20 30 -24 -3 -4 1
-7 10 -7 9 0 20 -6 24 -13 4 -8 17 -16 28 -20 50 -14 91 -33 107 -50 9 -10 27
-19 40 -21 29 -3 59 -16 76 -33 7 -7 23 -13 35 -14 21 0 21 -1 2 -9 -16 -7
-11 -9 22 -9 33 -1 43 -5 48 -21 5 -15 12 -19 26 -15 13 4 19 2 19 -8 0 -10 8
-13 24 -10 18 4 26 0 31 -16 3 -12 13 -21 21 -21 8 0 14 -4 14 -10 0 -5 6 -10
14 -10 7 0 19 -7 26 -15 7 -8 23 -15 36 -15 13 0 24 -4 24 -9 0 -5 15 -11 33
-15 17 -3 50 -19 72 -35 22 -15 51 -31 65 -35 14 -3 32 -16 41 -29 l17 -23
-48 16 c-26 8 -44 17 -40 20 4 3 2 11 -6 18 -8 7 -14 10 -14 6 0 -4 -8 0 -17
8 -10 9 -43 23 -73 33 -30 10 -76 32 -101 50 -32 23 -50 30 -57 23 -7 -7 -14
-3 -21 11 -7 12 -18 21 -26 21 -8 0 -15 4 -15 10 0 12 -82 50 -107 50 -25 0
-63 28 -63 46 0 9 -11 14 -35 14 -19 0 -35 3 -35 8 0 10 -87 57 -133 72 -20 6
-50 25 -67 41 -16 16 -44 36 -62 44 -18 8 -26 14 -18 14 8 0 32 -8 53 -18z
m2667 -131 c-19 -17 -38 -30 -42 -30 -4 0 -15 -14 -23 -31 -9 -17 -19 -28 -22
-25 -3 3 -19 -13 -34 -34 -16 -22 -36 -40 -44 -40 -10 0 -15 -10 -15 -32 0
-23 -3 -29 -9 -19 -11 17 3 67 18 64 6 -2 21 13 33 32 13 19 34 39 47 45 18 8
21 14 12 19 -8 6 -1 13 23 25 20 9 35 22 33 29 -1 7 6 11 17 9 11 -2 15 1 11
7 -3 6 2 11 12 11 14 -1 10 -8 -17 -30z m-166 -381 c2 -30 1 -39 -1 -20 -2 19
-11 44 -19 56 -8 12 -11 25 -7 28 13 14 24 -11 27 -64z m-1554 -9 c0 -4 10 -5
23 -3 13 3 33 -4 50 -17 28 -23 37 -46 13 -37 -11 4 -13 -2 -9 -24 4 -25 0
-32 -16 -36 -12 -3 -28 -20 -37 -39 -10 -21 -21 -31 -30 -27 -8 3 -14 0 -14
-7 0 -6 -4 -9 -9 -6 -5 3 -14 -7 -19 -23 -6 -16 -20 -34 -31 -41 -35 -18 -82
-70 -75 -81 3 -6 -1 -9 -9 -7 -16 3 -59 -40 -52 -52 3 -4 -3 -7 -12 -6 -9 0
-22 -8 -27 -19 -6 -11 -20 -22 -31 -24 -19 -3 -19 -2 -2 16 9 11 17 25 17 31
0 6 9 13 19 17 25 7 311 291 311 308 0 18 -29 57 -43 57 -13 1 -67 45 -67 55
0 3 11 -2 25 -11 14 -9 25 -20 25 -24z m1581 -134 l-12 -21 5 23 c2 12 0 22
-5 22 -4 0 -6 7 -2 16 5 15 7 15 16 -1 6 -11 5 -24 -2 -39z m-4 -123 c-3 -10
-5 -2 -5 17 0 19 2 27 5 18 2 -10 2 -26 0 -35z m20 -15 c-3 -7 -5 -2 -5 12 0
14 2 19 5 13 2 -7 2 -19 0 -25z m4 -103 c23 -22 24 -38 4 -55 -9 -7 -13 -20
-10 -29 5 -13 4 -13 -6 -4 -10 10 -9 16 1 28 12 14 11 18 -1 26 -12 7 -12 9 0
9 11 0 11 4 -2 18 -11 12 -16 33 -15 58 l1 39 4 -36 c2 -20 13 -45 24 -54z
m-1914 -110 c-7 -14 -17 -23 -22 -21 -6 2 -22 -10 -35 -26 -60 -72 -90 -98
-110 -98 -12 0 -19 -4 -16 -9 8 -13 -60 -21 -229 -27 -97 -4 -153 -10 -157
-17 -6 -9 -8 -9 -8 1 0 6 -4 12 -10 12 -5 0 -10 -9 -10 -20 0 -11 -5 -20 -11
-20 -5 0 -7 5 -4 10 3 6 -4 11 -17 11 -42 3 -93 -3 -98 -11 -6 -10 -52 -13
-135 -10 l-60 2 50 13 c28 7 76 14 108 14 32 1 66 5 75 10 9 5 98 11 197 15
247 8 365 37 386 94 7 20 100 102 115 102 1 0 -3 -11 -9 -25z m1947 -79 c-3
-33 -7 -63 -10 -68 -3 -4 -1 -8 4 -8 6 0 10 -25 10 -55 -1 -30 -3 -54 -5 -51
-8 8 -17 93 -15 143 1 29 -2 55 -8 58 -5 3 -6 13 -3 22 4 11 3 14 -5 9 -8 -5
-12 0 -12 12 0 18 3 19 25 9 24 -11 25 -15 19 -71z m-963 -76 c25 -14 25 -30
0 -30 -11 0 -23 -4 -26 -10 -3 -5 -14 -10 -23 -9 -15 0 -15 1 1 8 10 4 18 10
18 14 -4 39 0 43 30 27z m49 -35 c0 -8 5 -15 11 -15 7 0 9 -10 5 -24 -4 -18
-1 -29 12 -38 11 -7 25 -30 33 -50 7 -21 17 -38 21 -38 4 0 8 -6 8 -14 0 -8 7
-16 15 -20 8 -3 12 -12 9 -19 -3 -8 2 -17 10 -20 9 -4 16 -17 16 -30 0 -13 5
-28 10 -33 6 -6 12 -19 14 -30 3 -10 8 -28 12 -38 5 -13 4 -17 -4 -12 -6 4
-16 24 -22 46 -9 35 -70 120 -91 128 -5 2 -7 7 -4 12 6 10 -13 58 -34 83 -18
21 -42 127 -29 127 4 0 8 -7 8 -15z m-153 -60 c-14 -20 -34 -43 -45 -51 -19
-13 -19 -12 -8 11 6 14 18 27 27 30 9 3 22 17 29 30 7 14 15 23 18 21 2 -3 -7
-21 -21 -41z m-1831 3 c-9 -5 -14 -13 -11 -17 6 -11 -23 -36 -32 -27 -3 3 -1
6 5 6 7 0 12 7 12 15 0 20 22 45 34 38 5 -3 1 -10 -8 -15z m51 6 c-3 -3 -12
-4 -19 -1 -8 3 -5 6 6 6 11 1 17 -2 13 -5z m2855 -66 c21 -39 49 -296 30 -284
-5 3 -9 20 -8 37 1 16 -1 32 -6 35 -4 3 -8 18 -8 34 0 16 -5 32 -10 35 -6 4
-8 15 -5 25 3 10 1 21 -5 25 -7 4 -8 11 -2 18 14 17 7 77 -9 88 -9 6 -10 9 -2
9 7 0 18 -10 25 -22z m-1152 -23 c0 -8 -2 -15 -4 -15 -2 0 -12 -3 -21 -6 -15
-6 -15 -4 -4 15 16 25 29 27 29 6z m-1770 -25 c0 -13 -11 -13 -30 0 -12 8 -11
10 8 10 12 0 22 -4 22 -10z m1668 -84 c-18 -17 -41 -35 -50 -39 -15 -5 -16 -4
-5 13 6 11 15 20 19 20 5 0 8 7 8 15 0 8 9 15 20 15 13 0 22 9 27 28 7 26 8
26 11 4 2 -16 -7 -33 -30 -56z m-1652 56 c-4 -7 19 -20 68 -36 10 -4 16 -9 13
-13 -4 -3 -1 -13 6 -22 6 -9 -3 -3 -21 12 -19 15 -42 27 -52 27 -11 0 -24 9
-30 20 -9 16 -8 20 5 20 9 0 14 -4 11 -8z m151 -96 c-4 -12 28 -37 81 -62 17
-9 32 -20 32 -25 0 -12 -17 -12 -25 0 -3 5 -22 15 -43 22 -20 7 -45 21 -54 33
-10 12 -22 26 -27 32 -13 16 -4 23 20 17 11 -3 18 -11 16 -17z m1368 -80 c-24
-31 -66 -66 -80 -66 -3 0 -5 5 -5 10 0 6 3 9 8 8 14 -3 42 14 36 23 -3 5 1 9
9 9 7 0 19 11 25 25 6 14 16 25 22 25 6 0 -1 -15 -15 -34z m-1208 -47 c2 -16
-1 -20 -12 -15 -14 5 -21 -17 -16 -47 1 -5 -3 -6 -9 -2 -5 3 -10 -1 -10 -9 0
-9 -6 -16 -13 -16 -7 0 -23 -11 -35 -25 -23 -26 -37 -31 -46 -17 -3 5 6 15 19
22 14 7 25 17 25 22 0 4 6 8 14 8 8 0 18 10 22 22 9 29 47 88 53 82 3 -2 6
-14 8 -25z m1893 -39 c0 -11 5 -20 10 -20 6 0 10 -9 10 -19 0 -11 9 -23 20
-26 11 -3 20 -15 20 -25 0 -10 5 -22 10 -25 6 -3 10 -15 10 -26 0 -29 -24 -18
-30 13 -3 14 -19 37 -36 51 -22 18 -33 38 -37 64 -3 21 -9 47 -13 57 -7 17 -5
17 14 -2 12 -12 22 -31 22 -42z m756 -92 c2 -67 8 -141 14 -163 13 -54 13
-115 -1 -115 -6 0 -9 7 -6 15 4 8 0 39 -8 70 -8 30 -15 105 -16 167 0 69 -5
119 -12 127 -9 12 -9 13 1 7 8 -5 12 -1 12 10 0 10 3 15 6 12 3 -4 7 -62 10
-130z m-1592 0 c-16 -24 -30 -45 -31 -47 -2 -3 -9 1 -15 7 -9 9 -7 13 5 18 9
3 17 13 17 22 0 16 43 61 48 50 2 -4 -9 -26 -24 -50z m-1213 -36 c-7 -2 -17
-10 -24 -18 -20 -24 -118 -123 -115 -116 28 57 43 82 48 82 3 0 26 19 50 41
29 28 46 37 49 28 2 -7 -1 -15 -8 -17z m-1402 3 c-3 -2 -65 -7 -139 -10 -162
-7 -197 -11 -233 -24 -15 -6 -27 -9 -27 -6 0 2 -13 0 -30 -5 -18 -5 -30 -5
-30 1 0 5 6 9 14 9 8 0 16 4 18 10 2 5 39 13 83 18 84 10 352 15 344 7z m38
-11 c-3 -3 -12 -4 -19 -1 -8 3 -5 6 6 6 11 1 17 -2 13 -5z m163 -4 c0 -5 -2
-10 -4 -10 -3 0 -8 5 -11 10 -3 6 -1 10 4 10 6 0 11 -4 11 -10z m160 0 c17 -5
5 -7 -38 -6 -34 0 -54 4 -45 8 23 8 51 8 83 -2z m138 2 c17 -1 32 -7 32 -13 0
-7 -9 -9 -27 -3 -16 4 -48 6 -71 5 -24 -1 -41 2 -38 7 5 8 16 9 104 4z m67
-22 c3 -5 15 -10 26 -10 10 0 19 -4 19 -9 0 -5 10 -8 23 -6 12 3 47 0 77 -6
30 -5 70 -12 89 -15 19 -2 43 -10 54 -16 12 -6 32 -14 46 -19 25 -7 25 -7 -6
-8 -17 -1 -33 3 -35 8 -1 5 -28 12 -58 15 -30 4 -57 11 -61 17 -3 6 -34 10
-69 10 -37 0 -75 6 -92 15 -16 8 -33 12 -38 9 -6 -3 -7 1 -4 9 7 18 20 21 29
6z m-1049 -21 c5 -8 -112 -6 -121 2 -2 2 23 5 56 6 32 0 61 -3 65 -8z m4038
-14 c26 -39 18 -52 -9 -15 -28 38 -29 40 -16 40 5 0 16 -11 25 -25z m-4158 -4
c-4 -5 -25 -12 -49 -16 -23 -4 -45 -12 -48 -18 -4 -5 -12 -6 -19 -2 -8 5 1 14
26 25 41 19 99 26 90 11z m3181 -59 c-19 -18 -22 -7 -10 38 l6 24 10 -22 c8
-18 7 -27 -6 -40z m-3317 18 c0 -13 -20 -13 -40 0 -12 8 -9 10 13 10 15 0 27
-4 27 -10z m-75 -10 c-3 -5 -15 -10 -26 -10 -10 0 -19 -3 -19 -8 0 -12 -56
-33 -94 -35 -19 -1 -32 -6 -29 -10 3 -5 -4 -11 -16 -14 -12 -3 -21 -9 -21 -14
0 -5 -19 -9 -42 -9 l-43 1 35 15 c19 8 45 24 57 36 16 15 31 19 62 16 22 -2
38 -1 35 1 -6 7 67 40 89 41 10 0 15 -4 12 -10z m1840 -20 c21 -11 41 -23 44
-28 3 -4 38 -6 78 -2 56 4 76 10 88 25 15 18 16 18 11 2 -3 -10 -6 -23 -6 -28
0 -6 -4 -8 -9 -5 -4 3 -16 -3 -26 -14 -14 -15 -21 -17 -26 -8 -6 9 -11 9 -22
-1 -10 -8 -17 -9 -22 -1 -3 5 -26 10 -51 10 -37 0 -46 4 -54 23 -5 12 -9 18
-9 14 -1 -5 -7 -5 -13 0 -13 7 -18 9 -50 11 -10 1 -18 7 -18 12 0 16 43 11 85
-10z m2579 -31 c6 -9 16 -17 21 -18 11 -1 12 -5 14 -47 0 -14 5 -22 11 -19 17
11 36 -17 32 -49 -3 -22 4 -39 22 -61 14 -17 27 -38 27 -47 1 -10 2 -24 3 -30
1 -7 7 -17 14 -21 6 -4 12 -15 12 -22 0 -8 5 -15 10 -15 6 0 10 -7 10 -15 0
-8 5 -15 10 -15 6 0 10 -8 10 -17 0 -15 -2 -16 -10 -3 -8 13 -10 12 -10 -2 0
-10 5 -18 12 -18 15 0 58 -48 58 -65 0 -7 6 -18 14 -25 8 -6 12 -18 9 -25 -3
-8 2 -22 11 -30 9 -9 16 -24 16 -33 0 -26 -28 16 -40 61 -6 22 -17 37 -26 37
-8 0 -14 6 -12 14 2 8 -9 25 -24 39 -16 15 -28 38 -30 58 -2 21 -8 34 -17 34
-18 0 -29 30 -30 76 -1 24 -9 43 -26 59 -14 13 -25 29 -25 36 0 6 -7 17 -15
24 -26 22 -88 158 -80 177 7 17 8 16 13 -2 2 -11 9 -27 16 -36z m-1050 -15 c3
-8 2 -12 -4 -9 -6 3 -10 10 -10 16 0 14 7 11 14 -7z m-3695 -65 c-11 -11 -26
-19 -32 -16 -19 7 -57 -11 -57 -28 0 -10 -10 -15 -28 -15 -16 0 -49 -15 -78
-35 -27 -19 -53 -35 -58 -35 -4 0 -21 -11 -38 -25 -16 -14 -36 -25 -44 -25
-17 0 -50 -18 -78 -42 -11 -10 -24 -18 -29 -18 -5 0 -18 -11 -29 -25 -18 -23
-67 -37 -53 -15 3 6 14 10 24 10 10 0 23 11 29 25 6 14 15 25 20 25 5 0 19 9
32 20 12 10 46 26 76 35 30 9 60 24 67 35 6 11 17 20 24 20 7 0 13 7 13 15 0
8 6 15 14 15 7 0 35 12 62 27 42 23 154 68 177 72 4 0 -2 -8 -14 -20z m3690
-21 c-7 -26 -28 -313 -29 -403 0 -13 -3 -16 -8 -8 -4 7 -5 41 -2 75 4 35 6
100 6 146 -1 45 3 82 7 82 5 0 7 10 6 23 -3 32 12 117 21 117 5 0 4 -15 -1
-32z m1694 -153 c3 -59 2 -78 -3 -55 -9 35 -12 156 -5 148 2 -2 6 -44 8 -93z
m-3460 78 c-7 -2 -19 -2 -25 0 -7 3 -2 5 12 5 14 0 19 -2 13 -5z m-126 -19
c-3 -3 -12 -4 -19 -1 -8 3 -5 6 6 6 11 1 17 -2 13 -5z m-734 -29 c-3 -9 -8
-14 -10 -11 -3 3 -2 9 2 15 9 16 15 13 8 -4z m-99 -54 c-4 -3 -9 0 -11 7 -3 6
-13 12 -24 12 -12 0 -16 5 -13 14 5 12 10 10 30 -6 13 -12 21 -24 18 -27z
m2307 19 c31 5 39 -1 39 -31 0 -24 4 -30 15 -25 11 4 15 -1 15 -19 0 -15 7
-26 20 -30 11 -3 20 -15 20 -26 0 -12 10 -23 26 -30 15 -5 24 -12 20 -16 -3
-3 -1 -12 5 -19 7 -8 7 -19 1 -30 -8 -14 -10 -12 -15 12 -4 20 -20 39 -52 59
-28 18 -47 40 -51 55 -16 76 -60 106 -96 65 -12 -14 -30 -25 -41 -25 -17 0
-17 1 -3 16 9 8 20 13 25 9 5 -3 15 10 22 29 11 29 14 32 24 20 6 -9 18 -15
26 -14z m-3034 -15 c0 -10 -6 -14 -14 -10 -8 3 -18 5 -21 6 -4 0 2 4 13 9 11
5 20 9 21 9 0 1 1 -6 1 -14z m503 -34 c0 -17 -18 -21 -24 -6 -3 9 0 15 9 15 8
0 15 -4 15 -9z m-608 -29 c-7 -2 -10 -8 -6 -13 7 -12 -28 -11 -46 2 -12 8 -10
9 7 4 18 -5 22 -3 17 9 -4 11 0 13 17 9 13 -4 18 -8 11 -11z m3022 -7 c-4 -8
-9 -15 -13 -15 -4 0 -13 -12 -20 -27 -8 -18 -15 -23 -23 -15 -7 7 0 19 23 41
40 35 40 36 33 16z m2246 -42 c0 -24 -3 -33 -9 -25 -7 12 -4 62 5 62 2 0 4
-17 4 -37z m-5365 8 c-3 -6 -16 -11 -28 -11 -21 0 -21 1 3 13 27 15 36 14 25
-2z m-575 0 c0 -5 -7 -12 -16 -15 -14 -5 -15 -4 -4 9 14 17 20 19 20 6z m1199
-5 c14 -17 -8 -29 -30 -15 -12 7 -12 9 1 9 13 0 13 1 0 10 -13 8 -13 10 1 10
9 0 22 -6 28 -14z m-574 -17 c-7 -10 -35 -1 -35 11 0 5 9 6 20 3 11 -3 17 -9
15 -14z m715 5 c0 -2 -9 -4 -21 -4 -11 0 -18 4 -14 10 5 8 35 3 35 -6z m-1370
-24 c0 -5 -2 -10 -4 -10 -3 0 -8 5 -11 10 -3 6 -1 10 4 10 6 0 11 -4 11 -10z
m516 -5 c14 -13 14 -15 -1 -15 -9 0 -23 7 -31 15 -14 13 -14 15 1 15 9 0 23
-7 31 -15z m597 8 c3 -5 -8 -8 -24 -8 -16 0 -29 3 -29 8 0 4 11 7 24 7 14 0
27 -3 29 -7z m2528 -2 c-19 -12 -6 -44 40 -93 21 -23 39 -45 39 -49 0 -3 10
-11 23 -17 12 -6 16 -11 8 -11 -15 -1 -67 42 -112 93 -23 27 -28 40 -23 60 3
15 13 26 23 26 13 0 13 -2 2 -9z m-3671 -7 c0 -10 -46 -50 -66 -58 -17 -6 -17
-6 1 14 10 11 14 20 9 20 -5 0 0 7 10 15 20 15 46 20 46 9z m1587 -16 c-3 -8
-6 -5 -6 6 -1 11 2 17 5 13 3 -3 4 -12 1 -19z m4382 -57 c-13 -28 -30 -50 -36
-51 -20 0 -15 19 12 46 25 25 29 36 25 64 -1 12 1 12 11 3 10 -10 8 -22 -12
-62z m-5414 29 c3 -5 2 -10 -4 -10 -5 0 -13 5 -16 10 -3 6 -2 10 4 10 5 0 13
-4 16 -10z m492 4 c-3 -3 -12 -4 -19 -1 -8 3 -5 6 6 6 11 1 17 -2 13 -5z
m-644 -11 c-7 -2 -19 -2 -25 0 -7 3 -2 5 12 5 14 0 19 -2 13 -5z m117 -12 c-1
-3 -12 -19 -25 -36 l-24 -29 -10 27 c-6 15 -16 27 -22 27 -7 0 -9 3 -6 7 4 3
16 -2 27 -12 18 -16 20 -16 20 -2 0 10 -5 17 -11 17 -5 0 -8 4 -5 9 6 9 56 3
56 -8z m-620 -36 c-7 -8 -17 -12 -23 -8 -6 4 -3 11 8 19 23 17 32 10 15 -11z
m465 6 c0 -8 -8 -19 -18 -25 -22 -14 -42 11 -25 32 14 16 43 12 43 -7z m736 2
c-11 -5 -11 -7 0 -14 11 -7 10 -9 -3 -9 -18 0 -23 11 -11 23 3 4 11 7 17 6 6
0 5 -3 -3 -6z m309 -8 c-14 -16 -25 -21 -15 -6 3 5 -3 12 -12 14 -11 3 -6 5
11 6 24 1 27 -1 16 -14z m147 -17 c-3 -7 -5 -2 -5 12 0 14 2 19 5 13 2 -7 2
-19 0 -25z m2522 -6 c13 -13 25 -62 15 -62 -3 0 -10 14 -16 30 -5 17 -19 35
-29 41 -10 5 -19 15 -19 21 0 10 17 0 49 -30z m-4226 -27 c-10 -8 -22 -15 -28
-15 -15 -1 -55 -37 -55 -49 0 -6 -9 -11 -21 -11 -15 0 -19 -5 -15 -15 3 -8 2
-14 -2 -14 -4 1 -18 -2 -30 -6 -18 -6 -20 -10 -10 -16 10 -7 10 -9 1 -9 -7 0
-13 -7 -13 -16 0 -8 -4 -12 -10 -9 -13 8 -46 -24 -55 -53 -4 -13 -12 -21 -20
-19 -11 5 -41 -39 -37 -55 1 -4 -6 -4 -15 -1 -11 4 -14 3 -9 -5 4 -7 1 -12 -8
-12 -9 0 -16 -6 -16 -14 0 -7 -11 -22 -25 -32 -14 -10 -25 -26 -25 -35 0 -8
-11 -26 -25 -39 -13 -12 -22 -27 -19 -31 3 -5 -3 -9 -12 -9 -10 0 -15 -3 -11
-6 8 -9 -21 -64 -33 -64 -6 0 -10 -6 -10 -13 0 -7 -14 -27 -30 -46 -17 -18
-28 -37 -25 -42 4 -5 -1 -9 -11 -9 -13 0 -14 -3 -5 -14 9 -10 8 -16 -4 -26
-13 -10 -15 -9 -15 10 0 28 44 105 63 113 8 3 24 25 35 49 28 54 101 159 155
219 23 26 62 70 87 98 25 28 53 54 63 57 9 3 15 9 12 14 -3 5 8 19 25 31 16
13 30 29 30 36 0 7 4 13 10 13 5 0 20 11 34 25 14 14 32 25 40 25 9 0 20 10
27 22 10 19 12 20 21 4 7 -13 5 -21 -9 -31z m1287 25 c0 -5 -8 -10 -17 -10
-15 0 -16 2 -3 10 19 12 20 12 20 0z m-851 -33 c-21 -20 -21 -21 -3 -28 16 -6
15 -8 -7 -8 -15 -1 -32 6 -39 14 -10 12 -9 15 4 15 10 0 15 4 11 9 -7 13 25
30 42 24 11 -4 9 -11 -8 -26z m695 26 c-5 -5 -11 -11 -14 -15 -3 -3 -14 0 -24
8 -19 13 -18 14 14 14 18 0 29 -3 24 -7z m-565 -24 c-10 -6 -10 -9 -2 -9 7 0
17 -9 23 -20 10 -19 9 -19 -19 -2 -16 9 -27 20 -25 24 3 5 -7 9 -23 9 -25 2
-25 2 7 8 40 8 59 3 39 -10z m5466 -24 c-14 -21 -25 -44 -25 -51 0 -8 -4 -14
-9 -14 -5 0 -8 -7 -7 -16 0 -9 -9 -23 -21 -31 -15 -10 -23 -11 -23 -4 0 6 4
11 9 11 5 0 7 9 4 19 -3 13 1 21 14 25 11 3 27 22 36 42 17 35 39 65 45 59 2
-1 -8 -20 -23 -40z m-4552 -10 c-8 -22 -22 -18 -16 5 3 11 9 17 14 15 4 -3 6
-12 2 -20z m2804 12 c11 4 14 2 9 -5 -11 -18 -36 -14 -35 6 0 9 3 12 5 5 3 -7
12 -9 21 -6z m-3079 -20 c5 -24 -15 -21 -21 4 -3 13 -1 19 6 16 7 -2 13 -11
15 -20z m4622 -55 c0 -9 -9 3 -20 27 -26 55 -25 65 0 23 11 -18 20 -40 20 -50z
m-5283 62 c-3 -3 -12 -4 -19 -1 -8 3 -5 6 6 6 11 1 17 -2 13 -5z m-42 -24 c0
-20 -37 -19 -40 1 -2 11 4 16 19 15 11 -1 21 -8 21 -16z m3470 10 c3 -5 1 -10
-4 -10 -6 0 -11 5 -11 10 0 6 2 10 4 10 3 0 8 -4 11 -10z m-3598 -15 c8 -23 0
-24 -19 -3 -15 15 -16 18 -3 18 9 0 18 -7 22 -15z m1616 8 c-7 -2 -19 -2 -25
0 -7 3 -2 5 12 5 14 0 19 -2 13 -5z m-1663 -12 c0 -3 15 -13 33 -21 28 -13 29
-15 11 -18 -13 -2 -33 7 -48 21 -17 16 -20 24 -11 24 8 0 15 -3 15 -6z m3721
-53 c44 -52 46 -57 13 -25 -22 20 -46 37 -53 37 -6 0 -9 5 -6 10 4 6 1 17 -5
25 -7 8 -10 15 -7 15 3 0 29 -28 58 -62z m-2627 37 c19 -15 19 -15 -3 -15 -12
0 -20 4 -17 9 4 5 0 12 -6 14 -7 3 -8 6 -3 6 6 0 19 -6 29 -14z m133 9 c-3 -3
-12 -4 -19 -1 -8 3 -5 6 6 6 11 1 17 -2 13 -5z m-284 -21 c-7 -2 -19 -2 -25 0
-7 3 -2 5 12 5 14 0 19 -2 13 -5z m-842 -33 c12 0 19 -7 19 -19 0 -27 -17 -36
-37 -20 -14 12 -13 14 8 20 21 6 20 7 -9 8 -28 1 -31 3 -20 15 7 8 15 10 16 5
2 -5 12 -9 23 -9z m-121 -7 c0 -3 -9 -3 -20 0 -11 3 -20 1 -20 -4 0 -5 9 -9
21 -9 18 0 20 -4 15 -25 -4 -14 -2 -25 4 -25 5 0 10 -4 10 -10 0 -5 -7 -10
-15 -10 -8 0 -15 7 -15 15 0 8 -4 15 -8 15 -5 0 -16 6 -26 13 -18 13 -18 15
-1 34 15 18 55 22 55 6z m5560 -3 c17 -13 20 -20 10 -20 -8 0 -26 9 -40 20
-17 13 -20 20 -10 20 8 0 26 -9 40 -20z m-4867 3 c-7 -2 -21 -2 -30 0 -10 3
-4 5 12 5 17 0 24 -2 18 -5z m124 1 c-3 -3 -12 -4 -19 -1 -8 3 -5 6 6 6 11 1
17 -2 13 -5z m-37 -34 c0 -5 -4 -10 -10 -10 -5 0 -10 5 -10 10 0 6 5 10 10 10
6 0 10 -4 10 -10z m-923 -6 c-3 -3 -12 -4 -19 -1 -8 3 -5 6 6 6 11 1 17 -2 13
-5z m751 -17 c5 -24 -15 -21 -21 4 -3 13 -1 19 6 16 7 -2 13 -11 15 -20z m139
-19 c-3 -7 -5 -2 -5 12 0 14 2 19 5 13 2 -7 2 -19 0 -25z m143 28 c0 -3 -4 -8
-10 -11 -5 -3 -10 -1 -10 4 0 6 5 11 10 11 6 0 10 -2 10 -4z m2958 -36 c5 0
12 -12 15 -27 l5 -27 -18 24 c-11 15 -22 20 -30 15 -10 -6 -12 -4 -7 10 4 9 4
23 0 29 -5 7 -1 4 9 -6 9 -10 21 -18 26 -18z m-3973 21 c3 -5 1 -12 -5 -16 -5
-3 -10 1 -10 9 0 18 6 21 15 7z m53 -13 c-6 -18 -25 -20 -31 -3 -5 10 0 15 14
15 12 0 19 -5 17 -12z m140 5 c-21 -5 -24 -33 -6 -51 9 -9 8 -12 -5 -12 -12 0
-17 8 -17 31 0 17 -4 28 -10 24 -5 -3 -10 -1 -10 4 0 6 15 10 33 10 17 -1 24
-3 15 -6z m1765 -10 c-7 -2 -19 -2 -25 0 -7 3 -2 5 12 5 14 0 19 -2 13 -5z
m-1006 -19 c-3 -3 -12 -4 -19 -1 -8 3 -5 6 6 6 11 1 17 -2 13 -5z m156 -1 c-7
-2 -19 -2 -25 0 -7 3 -2 5 12 5 14 0 19 -2 13 -5z m-428 -13 c4 -6 -6 -10 -22
-10 -22 0 -25 2 -13 10 19 12 27 12 35 0z m150 0 c3 -5 1 -10 -4 -10 -6 0 -11
5 -11 10 0 6 2 10 4 10 3 0 8 -4 11 -10z m-780 -10 c3 -5 -1 -10 -9 -10 -9 0
-16 5 -16 10 0 6 4 10 9 10 6 0 13 -4 16 -10z m902 -10 c3 -10 2 -11 -4 -4 -4
6 -15 14 -23 17 -11 5 -9 6 4 4 11 -1 21 -9 23 -17z m170 14 c-3 -3 -12 -4
-19 -1 -8 3 -5 6 6 6 11 1 17 -2 13 -5z m-449 -21 c-10 -2 -26 -2 -35 0 -10 3
-2 5 17 5 19 0 27 -2 18 -5z m-583 -13 c3 -5 1 -10 -4 -10 -6 0 -11 5 -11 10
0 6 2 10 4 10 3 0 8 -4 11 -10z m449 -28 c3 -5 -1 -9 -9 -9 -8 0 -12 4 -9 9 3
4 7 8 9 8 2 0 6 -4 9 -8z m356 -14 c0 -18 -2 -20 -9 -8 -6 8 -7 18 -5 22 9 14
14 9 14 -14z m3237 -102 c15 -24 18 -38 11 -42 -6 -4 -8 -3 -5 3 4 6 -2 18
-13 28 -11 10 -20 23 -20 30 0 7 -9 20 -21 31 -12 10 -30 33 -41 49 -13 19 -4
13 23 -16 24 -26 54 -63 66 -83z m-2957 94 c0 -5 -5 -10 -11 -10 -5 0 -7 5 -4
10 3 6 8 10 11 10 2 0 4 -4 4 -10z m517 -16 c-3 -3 -12 -4 -19 -1 -8 3 -5 6 6
6 11 1 17 -2 13 -5z m-594 -21 c-7 -2 -19 -2 -25 0 -7 3 -2 5 12 5 14 0 19 -2
13 -5z m-276 -19 c-3 -3 -12 -4 -19 -1 -8 3 -5 6 6 6 11 1 17 -2 13 -5z m150
0 c-3 -3 -12 -4 -19 -1 -8 3 -5 6 6 6 11 1 17 -2 13 -5z m200 -50 c-3 -3 -12
-4 -19 -1 -8 3 -5 6 6 6 11 1 17 -2 13 -5z m-1454 -11 c-7 -2 -19 -2 -25 0 -7
3 -2 5 12 5 14 0 19 -2 13 -5z m-12 -30 c12 -16 12 -17 -1 -7 -8 6 -22 14 -30
17 -13 5 -12 6 1 6 9 1 23 -7 30 -16z m156 11 c-3 -3 -12 -4 -19 -1 -8 3 -5 6
6 6 11 1 17 -2 13 -5z m-24 -21 c-7 -2 -19 -2 -25 0 -7 3 -2 5 12 5 14 0 19
-2 13 -5z m4353 -25 l16 -33 -26 27 c-28 29 -32 38 -16 38 5 0 17 -15 26 -32z
m-4419 8 c-5 -13 20 -45 30 -38 9 6 23 1 23 -10 0 -6 -3 -8 -7 -5 -3 4 -13 1
-22 -5 -9 -7 -13 -9 -9 -4 8 10 -9 29 -36 39 -19 7 -19 8 0 22 24 18 27 18 21
1z m123 -6 c0 -5 -2 -10 -4 -10 -3 0 -8 5 -11 10 -3 6 -1 10 4 10 6 0 11 -4
11 -10z m-256 -15 c-4 -8 -10 -15 -15 -15 -5 0 -9 7 -9 15 0 8 7 15 15 15 9 0
12 -6 9 -15z m300 -20 c-4 -8 -8 -15 -10 -15 -2 0 -4 7 -4 15 0 8 4 15 10 15
5 0 7 -7 4 -15z m1179 -2 c-7 -2 -19 -2 -25 0 -7 3 -2 5 12 5 14 0 19 -2 13
-5z m-1253 -47 c0 -20 -4 -22 -32 -17 -18 3 -26 6 -17 8 10 2 19 13 22 25 7
26 27 14 27 -16z m4419 -35 c17 -46 22 -79 6 -41 -22 50 -32 65 -42 63 -4 -1
-13 9 -19 22 l-12 24 29 -21 c15 -11 32 -33 38 -47z m-2805 43 c3 -8 2 -12 -4
-9 -6 3 -10 10 -10 16 0 14 7 11 14 -7z m-1779 -3 c-3 -5 3 -12 12 -14 12 -3
9 -5 -8 -6 -16 -1 -29 5 -33 14 -4 10 1 15 15 15 11 0 18 -4 14 -9z m298 -13
c-2 -5 -13 -8 -24 -8 -10 0 -19 3 -19 8 0 4 11 7 24 7 13 0 22 -3 19 -7z
m-416 -4 c-3 -3 -12 -4 -19 -1 -8 3 -5 6 6 6 11 1 17 -2 13 -5z m6 -21 c-7 -2
-19 -2 -25 0 -7 3 -2 5 12 5 14 0 19 -2 13 -5z m133 0 c-11 -11 -46 -14 -46
-3 0 6 12 10 27 10 14 0 23 -3 19 -7z m224 -10 c0 -5 -5 -15 -10 -23 -8 -12
-10 -11 -10 8 0 12 5 22 10 22 6 0 10 -3 10 -7z m-270 -46 c0 -5 -7 -6 -16 -3
-9 3 -21 6 -28 6 -7 0 -21 7 -32 16 -18 14 -18 14 6 3 20 -10 26 -9 35 5 9 15
11 15 23 -1 6 -9 12 -21 12 -26z m122 7 c-2 -13 -11 -24 -20 -24 -12 0 -13 3
-4 12 18 18 15 27 -8 21 -15 -4 -19 -2 -15 9 4 9 15 13 29 11 18 -4 22 -10 18
-29z m-281 -22 c5 -13 4 -22 -1 -22 -6 0 -10 9 -10 21 0 11 -4 17 -10 14 -5
-3 -10 -1 -10 5 0 19 22 6 31 -18z m896 12 c-3 -3 -12 -4 -19 -1 -8 3 -5 6 6
6 11 1 17 -2 13 -5z m-557 -20 c0 -2 -7 -4 -15 -4 -8 0 -15 4 -15 10 0 5 7 7
15 4 8 -4 15 -8 15 -10z m423 -1 c-7 -2 -19 -2 -25 0 -7 3 -2 5 12 5 14 0 19
-2 13 -5z m-1089 -37 c-3 -15 -15 -31 -25 -37 -11 -5 -19 -19 -19 -29 0 -11
-5 -20 -11 -20 -5 0 -7 -5 -4 -11 4 -5 -3 -18 -14 -28 -12 -10 -21 -23 -21
-30 0 -6 -5 -11 -11 -11 -10 0 -9 -20 3 -60 3 -8 3 -12 1 -8 -2 4 -17 -5 -33
-20 -18 -17 -25 -31 -20 -37 13 -16 8 -55 -7 -55 -7 0 -13 -10 -13 -21 0 -12
-8 -29 -18 -38 -10 -9 -22 -25 -26 -36 -5 -12 -10 -15 -13 -8 -2 7 6 25 18 42
15 21 20 37 15 56 -7 27 20 77 56 103 11 8 18 26 18 44 0 18 11 45 25 64 14
18 25 42 25 54 0 12 4 19 9 16 5 -4 7 3 4 13 -3 13 3 25 21 36 14 9 28 26 32
37 9 28 16 15 8 -16z m533 18 c-3 -3 -12 -4 -19 -1 -8 3 -5 6 6 6 11 1 17 -2
13 -5z m580 0 c-3 -3 -12 -4 -19 -1 -8 3 -5 6 6 6 11 1 17 -2 13 -5z m-442
-14 c3 -5 -3 -10 -14 -10 -12 0 -21 5 -21 10 0 6 6 10 14 10 8 0 18 -4 21 -10z
m4489 -39 c-5 -6 -33 31 -33 44 -1 6 8 -1 19 -15 10 -14 17 -27 14 -29z
m-4761 32 c-7 -2 -19 -2 -25 0 -7 3 -2 5 12 5 14 0 19 -2 13 -5z m1050 -13
c-3 -12 -8 -19 -11 -16 -5 6 5 36 12 36 2 0 2 -9 -1 -20z m-133 6 c0 -3 -4 -8
-10 -11 -5 -3 -10 -1 -10 4 0 6 5 11 10 11 6 0 10 -2 10 -4z m-943 -12 c-3 -3
-12 -4 -19 -1 -8 3 -5 6 6 6 11 1 17 -2 13 -5z m673 -5 c0 -5 -4 -7 -10 -4 -5
3 -10 1 -10 -6 0 -7 -3 -10 -6 -6 -8 7 4 27 17 27 5 0 9 -5 9 -11z m-637 -16
c-7 -2 -21 -2 -30 0 -10 3 -4 5 12 5 17 0 24 -2 18 -5z m207 -12 c0 -19 -26
-48 -35 -39 -6 6 18 58 28 58 4 0 7 -8 7 -19z m-140 5 c0 -3 -4 -8 -10 -11 -5
-3 -10 -1 -10 4 0 6 5 11 10 11 6 0 10 -2 10 -4z m-180 -31 c0 -8 -4 -15 -10
-15 -5 0 -7 7 -4 15 4 8 8 15 10 15 2 0 4 -7 4 -15z m27 -27 c-3 -7 -5 -2 -5
12 0 14 2 19 5 13 2 -7 2 -19 0 -25z m153 28 c0 -11 -19 -15 -25 -6 -3 5 1 10
9 10 9 0 16 -2 16 -4z m4749 -53 c14 -12 23 -22 19 -23 -3 0 2 -23 12 -51 15
-39 16 -48 4 -39 -8 7 -14 21 -14 31 0 10 -5 21 -10 24 -6 4 -8 10 -5 15 3 5
-1 14 -8 22 -21 22 -47 62 -47 73 0 5 6 1 12 -10 6 -11 23 -30 37 -42z m-4116
30 c-7 -2 -21 -2 -30 0 -10 3 -4 5 12 5 17 0 24 -2 18 -5z m140 0 c-7 -2 -21
-2 -30 0 -10 3 -4 5 12 5 17 0 24 -2 18 -5z m280 0 c-7 -2 -19 -2 -25 0 -7 3
-2 5 12 5 14 0 19 -2 13 -5z m154 1 c-3 -3 -12 -4 -19 -1 -8 3 -5 6 6 6 11 1
17 -2 13 -5z m-1437 -44 c-12 -8 -10 -10 10 -10 19 0 22 -2 11 -9 -9 -6 -22
-6 -33 0 -21 11 -15 29 10 29 15 0 15 -2 2 -10z m147 4 c-3 -3 -12 -4 -19 -1
-8 3 -5 6 6 6 11 1 17 -2 13 -5z m523 -28 c0 -3 -4 -8 -10 -11 -5 -3 -10 -1
-10 4 0 6 5 11 10 11 6 0 10 -2 10 -4z m535 -16 c3 -5 1 -10 -4 -10 -6 0 -11
5 -11 10 0 6 2 10 4 10 3 0 8 -4 11 -10z m-1109 -12 c4 -6 3 -8 -4 -4 -5 3
-13 0 -15 -6 -3 -8 -6 -6 -6 5 -1 19 14 23 25 5z m261 -10 c-3 -8 -6 -5 -6 6
-1 11 2 17 5 13 3 -3 4 -12 1 -19z m-140 -7 c0 -11 -5 -18 -9 -15 -4 3 -5 11
-1 19 7 21 12 19 10 -4z m-264 -15 c3 -8 -1 -17 -9 -20 -9 -4 -14 1 -14 14 0
23 15 27 23 6z m1174 8 c-3 -3 -12 -4 -19 -1 -8 3 -5 6 6 6 11 1 17 -2 13 -5z
m40 0 c-3 -3 -12 -4 -19 -1 -8 3 -5 6 6 6 11 1 17 -2 13 -5z m-151 -29 c18
-14 18 -14 -4 -15 -14 0 -21 4 -16 11 4 8 0 9 -15 4 -12 -4 -21 -2 -21 4 0 16
33 13 56 -4z m-159 -11 c-3 -3 -12 -4 -19 -1 -8 3 -5 6 6 6 11 1 17 -2 13 -5z
m-947 -39 c0 -14 -3 -25 -7 -25 -5 0 -8 11 -8 25 0 14 3 25 8 25 4 0 7 -11 7
-25z m5137 -22 c-3 -10 -5 -4 -5 12 0 17 2 24 5 18 2 -7 2 -21 0 -30z m-5002
17 c-3 -5 -19 -10 -36 -10 -16 0 -29 5 -29 10 0 6 16 10 36 10 21 0 33 -4 29
-10z m1052 -12 c-3 -8 -6 -5 -6 6 -1 11 2 17 5 13 3 -3 4 -12 1 -19z m-947 2
c0 -5 -4 -10 -10 -10 -5 0 -10 5 -10 10 0 6 5 10 10 10 6 0 10 -4 10 -10z
m540 6 c0 -3 -4 -8 -10 -11 -5 -3 -10 -1 -10 4 0 6 5 11 10 11 6 0 10 -2 10
-4z m367 -18 c-3 -8 -6 -5 -6 6 -1 11 2 17 5 13 3 -3 4 -12 1 -19z m-407 -8
c0 -5 -4 -10 -10 -10 -5 0 -10 5 -10 10 0 6 5 10 10 10 6 0 10 -4 10 -10z
m-543 -22 c-3 -8 -6 -5 -6 6 -1 11 2 17 5 13 3 -3 4 -12 1 -19z m-167 2 c0 -5
-5 -10 -11 -10 -5 0 -7 5 -4 10 3 6 8 10 11 10 2 0 4 -4 4 -10z m5134 -30 c6
-8 1 -7 -11 4 -13 10 -20 23 -16 29 4 7 8 6 11 -3 3 -8 10 -22 16 -30z m-4061
3 c-7 -2 -19 -2 -25 0 -7 3 -2 5 12 5 14 0 19 -2 13 -5z m4104 -102 c-2 -35
-4 -39 -14 -24 -7 9 -12 38 -11 65 2 45 3 47 15 24 7 -13 12 -43 10 -65z
m-5072 59 c3 -5 0 -12 -6 -16 -8 -4 -9 -3 -5 4 5 8 -3 12 -23 12 -17 0 -31 4
-31 8 0 11 58 3 65 -8z m568 3 c-7 -2 -21 -2 -30 0 -10 3 -4 5 12 5 17 0 24
-2 18 -5z m-717 -22 c-4 -5 0 -12 6 -14 7 -3 2 -6 -11 -6 -20 -1 -21 1 -11 14
14 16 25 21 16 6z m281 3 c-3 -3 -12 -4 -19 -1 -8 3 -5 6 6 6 11 1 17 -2 13
-5z m-81 -71 c-10 -10 -19 5 -10 18 6 11 8 11 12 0 2 -7 1 -15 -2 -18z m121 5
c-3 -8 -6 -5 -6 6 -1 11 2 17 5 13 3 -3 4 -12 1 -19z m-682 -9 c-2 -12 -9 -27
-16 -35 -6 -8 -8 -14 -4 -14 4 0 -5 -14 -19 -31 -21 -25 -26 -41 -26 -87 0
-64 -16 -132 -30 -132 -15 0 -12 54 5 86 8 16 15 51 15 78 0 38 6 56 28 85 16
20 32 44 35 54 9 24 17 21 12 -4z m1642 15 c-3 -3 -12 -4 -19 -1 -8 3 -5 6 6
6 11 1 17 -2 13 -5z m-284 -21 c-7 -2 -21 -2 -30 0 -10 3 -4 5 12 5 17 0 24
-2 18 -5z m134 1 c-3 -3 -12 -4 -19 -1 -8 3 -5 6 6 6 11 1 17 -2 13 -5z m4132
-42 c18 -72 23 -122 12 -122 -6 0 -11 20 -11 49 0 27 -4 51 -10 53 -5 2 -13
18 -16 37 -10 47 12 32 25 -17z m-5089 -1 c0 -38 -28 -53 -50 -26 -11 13 -8
15 16 15 22 0 26 3 14 10 -13 8 -12 10 3 10 9 0 17 -4 17 -9z m103 2 c-7 -2
-19 -2 -25 0 -7 3 -2 5 12 5 14 0 19 -2 13 -5z m-243 -19 c0 -2 -9 -4 -21 -4
-11 0 -18 4 -14 10 5 8 35 3 35 -6z m1167 -6 c-3 -8 -6 -5 -6 6 -1 11 2 17 5
13 3 -3 4 -12 1 -19z m-1187 -17 c0 -6 -5 -13 -12 -17 -6 -4 -8 -3 -4 4 3 6
-3 12 -16 15 -20 4 -19 4 5 6 15 0 27 -3 27 -8z m604 -9 c3 -5 -1 -9 -9 -9 -8
0 -15 4 -15 9 0 4 4 8 9 8 6 0 12 -4 15 -8z m-397 -49 c-3 -10 -5 -4 -5 12 0
17 2 24 5 18 2 -7 2 -21 0 -30z m-274 -4 c3 -10 1 -19 -4 -19 -5 0 -9 7 -9 15
0 8 -4 15 -10 15 -5 0 -10 4 -10 10 0 17 28 -1 33 -21z m137 27 c0 -3 -4 -8
-10 -11 -5 -3 -10 -1 -10 4 0 6 5 11 10 11 6 0 10 -2 10 -4z m787 -62 c-3 -3
-12 -4 -19 -1 -8 3 -5 6 6 6 11 1 17 -2 13 -5z m4415 -22 c-6 -2 -8 -11 -5
-20 5 -13 3 -14 -6 -6 -10 10 -10 17 0 35 9 18 14 20 17 9 3 -7 0 -16 -6 -18z
m-5409 -19 c-7 -2 -19 -2 -25 0 -7 3 -2 5 12 5 14 0 19 -2 13 -5z m154 1 c-3
-3 -12 -4 -19 -1 -8 3 -5 6 6 6 11 1 17 -2 13 -5z m136 -1 c-7 -2 -19 -2 -25
0 -7 3 -2 5 12 5 14 0 19 -2 13 -5z m-146 -19 c-3 -3 -12 -4 -19 -1 -8 3 -5 6
6 6 11 1 17 -2 13 -5z m5293 -14 c0 -5 -2 -10 -4 -10 -3 0 -8 5 -11 10 -3 6
-1 10 4 10 6 0 11 -4 11 -10z m-4670 -10 c0 -5 -5 -10 -11 -10 -5 0 -7 5 -4
10 3 6 8 10 11 10 2 0 4 -4 4 -10z m-556 -15 c3 -9 0 -15 -9 -15 -9 0 -12 6
-9 15 4 8 7 15 9 15 2 0 5 -7 9 -15z m1086 -1 c0 -2 -9 -4 -21 -4 -11 0 -18 4
-14 10 5 8 35 3 35 -6z m-1213 -26 c-3 -7 -5 -2 -5 12 0 14 2 19 5 13 2 -7 2
-19 0 -25z m5359 -35 c2 -32 6 -69 10 -83 4 -18 2 -22 -5 -14 -6 6 -13 46 -16
89 -3 43 -2 75 1 72 3 -3 8 -32 10 -64z m-4303 40 c-7 -2 -19 -2 -25 0 -7 3
-2 5 12 5 14 0 19 -2 13 -5z m-1493 -88 c-5 -53 -8 -66 -10 -40 -3 46 -1 71 6
104 9 43 11 17 4 -64z m653 48 c-7 -2 -19 -2 -25 0 -7 3 -2 5 12 5 14 0 19 -2
13 -5z m-288 -13 c3 -5 2 -10 -4 -10 -5 0 -13 5 -16 10 -3 6 -2 10 4 10 5 0
13 -4 16 -10z m1312 -12 c-3 -8 -6 -5 -6 6 -1 11 2 17 5 13 3 -3 4 -12 1 -19z
m-700 -30 c-3 -8 -6 -5 -6 6 -1 11 2 17 5 13 3 -3 4 -12 1 -19z m163 2 c0 -5
-7 -10 -15 -10 -8 0 -15 5 -15 10 0 6 7 10 15 10 8 0 15 -4 15 -10z m-703 -32
c-3 -8 -6 -5 -6 6 -1 11 2 17 5 13 3 -3 4 -12 1 -19z m-152 -8 c-3 -5 -11 -10
-16 -10 -6 0 -7 5 -4 10 3 6 11 10 16 10 6 0 7 -4 4 -10z m5545 -86 c0 -18 3
-41 6 -51 3 -10 -1 -7 -10 7 -8 14 -12 37 -9 53 3 16 1 27 -6 27 -6 0 -11 8
-11 18 1 33 30 -19 30 -54z m-5840 -1 c0 -13 -4 -23 -10 -23 -5 0 -7 -7 -4
-15 4 -8 11 -12 16 -9 20 13 -4 -41 -28 -63 -14 -13 -21 -23 -15 -23 5 0 13 5
16 10 3 6 11 10 17 10 6 0 -1 -10 -15 -23 -15 -12 -27 -26 -27 -31 0 -5 7 -3
15 4 12 10 15 10 15 -2 0 -8 -4 -18 -9 -23 -5 -6 -11 -28 -13 -49 -2 -22 -7
-41 -13 -43 -6 -2 -9 28 -9 79 1 67 6 86 22 105 11 12 18 24 16 25 -2 2 -4 20
-6 41 -2 34 -3 36 -20 20 -28 -25 -21 -2 9 29 29 30 43 24 43 -19z m517 21
c-3 -3 -12 -4 -19 -1 -8 3 -5 6 6 6 11 1 17 -2 13 -5z m-190 -86 c-3 -8 -6 -5
-6 6 -1 11 2 17 5 13 3 -3 4 -12 1 -19z m916 5 c-7 -2 -19 -2 -25 0 -7 3 -2 5
12 5 14 0 19 -2 13 -5z m-296 -28 c0 -17 -13 -20 -21 -6 -4 5 0 12 6 14 7 3
13 6 14 6 0 1 1 -6 1 -14z m-570 -31 c-3 -3 -12 -4 -19 -1 -8 3 -5 6 6 6 11 1
17 -2 13 -5z m5470 -71 c-3 -10 -5 -2 -5 17 0 19 2 27 5 18 2 -10 2 -26 0 -35z
m-5240 5 c-3 -8 -6 -5 -6 6 -1 11 2 17 5 13 3 -3 4 -12 1 -19z m483 -32 c0 -3
-4 -8 -10 -11 -5 -3 -10 -1 -10 4 0 6 5 11 10 11 6 0 10 -2 10 -4z m167 -2
c-3 -3 -12 -4 -19 -1 -8 3 -5 6 6 6 11 1 17 -2 13 -5z m-1304 -111 c-3 -21 -7
-40 -9 -42 -2 -2 2 -11 9 -19 9 -13 9 -14 0 -8 -9 5 -13 1 -13 -10 0 -10 -3
-15 -6 -12 -8 9 7 128 17 128 4 0 5 -17 2 -37z m5894 0 c-3 -10 -5 -4 -5 12 0
17 2 24 5 18 2 -7 2 -21 0 -30z m-4742 -32 c-3 -5 3 -12 12 -14 14 -4 13 -5
-4 -6 -23 -1 -30 9 -16 22 9 10 15 8 8 -2z m-810 -41 c3 -6 -1 -7 -9 -4 -18 7
-21 14 -7 14 6 0 13 -4 16 -10z m252 -16 c-3 -3 -12 -4 -19 -1 -8 3 -5 6 6 6
11 1 17 -2 13 -5z m-592 -24 c-4 -6 -3 -19 1 -28 10 -25 12 -52 2 -52 -4 0 -8
-7 -8 -15 0 -8 3 -15 8 -15 4 0 7 -16 8 -35 0 -19 -3 -35 -8 -35 -12 0 -19 39
-17 95 1 28 -1 60 -6 73 -6 17 -4 22 9 22 10 0 14 -5 11 -10z m332 4 c-3 -3
-12 -4 -19 -1 -8 3 -5 6 6 6 11 1 17 -2 13 -5z m43 -40 c0 -8 -5 -12 -10 -9
-6 4 -8 11 -5 16 9 14 15 11 15 -7z m-43 -69 c0 -8 -4 -12 -9 -9 -4 3 -8 9 -8
15 0 5 4 9 8 9 5 0 9 -7 9 -15z m-312 -115 c2 -12 9 -28 14 -34 7 -9 7 -16 -1
-24 -7 -7 -8 -12 -2 -12 6 0 11 -16 12 -35 1 -26 -2 -34 -11 -28 -7 4 -5 -2 3
-12 9 -11 10 -16 3 -11 -7 4 -13 2 -13 -3 0 -6 4 -11 9 -11 5 0 6 -20 3 -45
-3 -31 -1 -45 7 -45 8 0 11 -11 8 -29 -4 -24 -1 -30 17 -35 19 -5 21 -11 20
-81 0 -41 3 -75 8 -75 4 0 8 -8 8 -17 0 -14 2 -15 9 -4 11 17 17 4 18 -39 0
-27 -1 -29 -4 -7 -2 15 -11 27 -19 27 -19 0 -30 30 -38 110 -4 36 -14 72 -22
81 -9 11 -19 55 -25 115 -5 55 -14 117 -18 139 -8 37 -4 111 6 102 2 -2 6 -14
8 -27z m5872 -32 c-3 -8 -6 -5 -6 6 -1 11 2 17 5 13 3 -3 4 -12 1 -19z m-5274
-5 c-7 -2 -19 -2 -25 0 -7 3 -2 5 12 5 14 0 19 -2 13 -5z m5274 -70 c-3 -10
-5 -4 -5 12 0 17 2 24 5 18 2 -7 2 -21 0 -30z m-4 -70 c-3 -21 -12 -47 -19
-58 -8 -11 -14 -29 -14 -41 0 -12 -7 -37 -16 -55 -9 -20 -12 -24 -8 -9 4 14 9
50 11 80 3 30 11 62 17 70 7 8 16 23 19 33 11 29 16 19 10 -20z m-80 -297
c-10 -13 -20 -20 -21 -15 -5 12 17 39 30 39 5 0 1 -11 -9 -24z m-22 -113 c-8
-14 -10 -9 -10 27 1 42 1 43 10 18 7 -18 7 -33 0 -45z m-5637 -19 c3 -9 6 -25
6 -37 0 -27 -16 -11 -25 26 -8 29 8 39 19 11z m5621 -26 c-4 -13 -13 -28 -21
-34 -8 -6 -14 -27 -14 -46 0 -21 -10 -47 -25 -68 -14 -19 -25 -30 -25 -25 0 5
7 16 16 26 9 10 19 39 21 63 3 25 12 51 19 57 8 6 14 20 14 30 0 11 5 19 11
19 6 0 8 -9 4 -22z m-5591 -46 c2 -4 1 -14 -3 -21 -6 -9 -10 -7 -14 8 -5 20 7
29 17 13z m16 -94 c0 -19 -2 -20 -10 -8 -13 19 -13 30 0 30 6 0 10 -10 10 -22z
m49 -82 c6 -7 8 -26 5 -44 -6 -27 -3 -33 19 -41 26 -10 33 -25 36 -75 0 -17
11 -36 26 -48 14 -11 25 -27 25 -36 0 -12 -6 -9 -18 11 -9 15 -21 27 -27 27
-6 0 -16 12 -22 28 -7 15 -16 34 -21 42 -6 8 -14 26 -20 40 -5 14 -15 38 -21
53 -20 50 -9 76 18 43z m5431 -16 c0 -5 -4 -10 -10 -10 -5 0 -10 5 -10 10 0 6
5 10 10 10 6 0 10 -4 10 -10z m-20 -56 c0 -3 -7 -21 -16 -40 -18 -38 -34 -44
-34 -14 0 11 6 19 12 18 7 -2 14 7 16 20 3 19 22 33 22 16z m-40 -97 c0 -2
-12 -14 -27 -28 l-28 -24 24 28 c23 25 31 32 31 24z m-63 -79 c-3 -8 -6 -5 -6
6 -1 11 2 17 5 13 3 -3 4 -12 1 -19z m-20 -56 c8 7 1 -8 -16 -33 -17 -26 -38
-52 -48 -60 -10 -7 -7 -1 7 14 13 15 25 40 26 55 3 36 5 39 11 24 4 -10 8 -10
20 0z m-5123 -44 c-4 -14 -2 -18 5 -14 6 4 11 2 11 -3 0 -6 -6 -11 -14 -11
-16 0 -29 27 -21 41 4 5 0 6 -8 3 -8 -3 -17 2 -20 10 -5 12 -1 13 24 4 24 -8
28 -14 23 -30z m29 -81 c-3 -4 -11 -3 -19 4 -7 6 -11 15 -8 20 3 5 11 3 18 -4
8 -6 12 -16 9 -20z m5011 -2 c-4 -8 -11 -12 -16 -9 -6 4 -5 10 3 15 19 12 19
11 13 -6z m-4984 -15 c0 -5 -2 -10 -4 -10 -3 0 -8 5 -11 10 -3 6 -1 10 4 10 6
0 11 -4 11 -10z m63 -87 c9 -19 17 -41 17 -49 0 -25 -25 6 -34 41 -4 17 -17
41 -29 54 l-22 24 25 -18 c14 -10 33 -33 43 -52z m4879 28 c-19 -34 -27 -33
-18 4 4 14 13 25 21 25 12 0 11 -5 -3 -29z m-32 -64 c0 -2 -11 -13 -25 -25
-19 -17 -25 -18 -25 -7 0 8 7 15 16 15 8 0 12 5 9 10 -3 6 1 10 9 10 9 0 16
-1 16 -3z m-4790 -51 c5 -13 19 -27 30 -31 14 -5 20 -13 17 -24 -5 -22 18 -55
32 -46 6 3 11 -1 11 -10 0 -22 -35 -3 -51 28 -7 12 -25 38 -40 58 -31 40 -35
49 -19 49 6 0 15 -11 20 -24z m4711 -32 c-12 -15 -21 -35 -21 -45 0 -11 -4
-19 -10 -19 -5 0 -10 -7 -10 -15 0 -8 -19 -28 -42 -45 -24 -17 -56 -53 -73
-82 -16 -28 -37 -54 -45 -56 -11 -4 -9 2 5 18 11 12 20 25 19 29 0 9 16 29 59
71 20 20 37 42 37 49 0 7 4 10 8 7 5 -3 19 13 31 34 12 22 19 40 15 40 -4 0 3
9 16 20 32 27 35 25 11 -6z m-4578 -136 c11 -16 26 -28 34 -28 8 0 11 -4 8
-10 -3 -5 1 -10 9 -10 15 0 21 -12 17 -33 -1 -4 9 -12 22 -18 12 -6 32 -23 42
-40 11 -16 24 -29 29 -29 4 0 17 -11 28 -25 11 -14 26 -25 34 -25 8 0 14 -6
14 -14 0 -7 11 -22 25 -32 14 -10 25 -24 25 -30 0 -6 15 -16 33 -21 17 -5 31
-15 29 -21 -1 -7 5 -12 13 -12 8 0 15 -7 15 -16 0 -8 5 -12 10 -9 6 3 10 1 10
-4 0 -20 -22 -11 -48 19 -15 17 -31 30 -37 30 -6 0 -32 24 -58 54 -30 35 -58
57 -77 61 -17 4 -28 11 -25 16 4 5 -19 34 -49 66 -31 31 -56 60 -56 64 0 4
-11 14 -25 23 -14 9 -25 21 -25 27 0 6 -10 19 -22 30 -15 12 -17 18 -8 17 8
-2 23 -15 33 -30z m4323 -162 c-20 -18 -42 -46 -51 -62 -8 -17 -15 -22 -15
-13 0 18 76 109 92 109 5 0 -7 -15 -26 -34z m-93 -103 c-9 -13 -20 -23 -26
-23 -6 0 -24 -12 -39 -27 -23 -22 -28 -24 -28 -9 0 11 4 15 13 10 8 -5 8 -2
-2 9 -12 15 -11 17 12 17 26 0 61 26 53 39 -3 4 4 7 14 7 16 0 16 -2 3 -23z
m-145 -108 c-23 -19 -56 -47 -71 -62 -40 -36 -95 -64 -104 -50 -3 6 -1 7 6 3
6 -4 14 0 17 8 3 9 12 16 19 16 7 0 24 9 37 20 59 50 124 99 131 100 5 0 -11
-16 -35 -35z m-3624 -67 c-6 -10 -36 5 -54 27 -12 15 -9 14 23 -1 20 -9 34
-21 31 -26z m86 -48 c6 0 10 -4 10 -9 0 -6 -12 -6 -31 -1 -39 12 -43 15 -35
35 5 13 8 13 26 -5 11 -11 25 -20 30 -20z m46 -38 c-3 -3 2 -11 12 -19 11 -10
12 -13 3 -11 -8 2 -21 14 -29 26 -13 20 -13 22 2 16 9 -4 14 -9 12 -12z m3284
-7 c-13 -14 -27 -25 -31 -25 -11 0 33 48 45 49 5 1 -1 -10 -14 -24z m-3176
-54 c15 -14 30 -20 37 -16 8 6 10 4 5 -4 -5 -7 0 -21 11 -33 17 -20 -46 18
-105 63 l-23 18 26 -3 c14 -1 36 -13 49 -25z m3072 -12 c-26 -17 -50 -28 -53
-25 -4 4 3 9 15 13 12 3 22 12 22 20 0 8 5 11 10 8 6 -3 10 -1 10 4 0 6 10 11
22 11 17 0 11 -7 -26 -31z m-108 -50 c-20 -13 -28 -11 -22 5 3 8 12 12 21 9
12 -5 12 -7 1 -14z m-2826 -31 c3 -23 6 -25 59 -27 17 0 28 -5 24 -11 -3 -5 0
-10 7 -10 7 0 19 -9 26 -20 14 -24 0 -27 -22 -5 -8 9 -18 16 -21 16 -29 -1
-67 16 -80 35 -8 13 -24 24 -35 24 -11 0 -20 5 -20 10 0 6 13 10 29 10 23 0
30 -5 33 -22z m2798 7 c0 -2 -20 -18 -44 -35 -43 -29 -94 -42 -81 -19 4 6 14
8 22 5 17 -7 46 18 35 29 -4 5 -1 5 5 1 7 -4 23 0 35 8 24 17 28 19 28 11z
m-172 -63 c10 -7 8 -12 -5 -24 -24 -21 -59 -38 -75 -38 -7 1 2 7 20 15 21 9
32 21 32 35 0 21 7 25 28 12z m-2473 -32 c3 -5 1 -10 -4 -10 -6 0 -11 5 -11
10 0 6 2 10 4 10 3 0 8 -4 11 -10z m72 -30 c3 -9 1 -11 -4 -5 -4 6 -17 12 -28
13 -32 6 -33 14 -1 10 16 -1 31 -10 33 -18z m2297 6 c-3 -8 -12 -17 -20 -20
-8 -3 -14 -12 -14 -21 0 -8 -7 -15 -15 -15 -21 0 -19 5 13 39 29 32 45 39 36
17z m-2264 -15 c0 -5 29 -13 65 -16 36 -4 65 -11 65 -16 0 -5 7 -9 15 -9 8 0
15 -4 15 -9 0 -5 -13 -6 -32 0 -18 5 -59 15 -90 24 -32 9 -58 20 -58 25 0 6 5
10 10 10 6 0 10 -4 10 -9z m2180 -41 c-6 -4 -21 -5 -33 -3 -14 2 -32 -6 -49
-21 -17 -16 -42 -27 -70 -31 l-43 -5 38 10 c35 9 46 15 83 49 8 7 26 11 39 8
14 -2 25 0 25 5 0 5 5 6 11 2 8 -5 8 -9 -1 -14z m-1960 -36 c0 -8 -4 -12 -10
-9 -5 3 -10 10 -10 16 0 5 5 9 10 9 6 0 10 -7 10 -16z m50 7 c0 -5 8 -7 18 -4
10 2 24 -2 31 -11 7 -8 20 -12 29 -9 13 4 14 3 4 -5 -9 -6 -26 -5 -50 4 -20 7
-45 13 -55 14 -10 0 -15 5 -12 10 8 12 35 13 35 1z m1660 -38 c-57 -18 -70
-21 -70 -13 0 9 29 17 65 18 13 0 15 -1 5 -5z m-1451 -30 c2 -2 -9 -3 -25 -2
-16 0 -23 3 -16 6 6 2 9 10 5 16 -4 7 2 5 13 -3 10 -8 21 -16 23 -17z m-64 7
c8 -13 -5 -13 -25 0 -13 8 -13 10 2 10 9 0 20 -4 23 -10z m1420 0 c3 -5 -1
-10 -10 -10 -9 0 -13 5 -10 10 3 6 8 10 10 10 2 0 7 -4 10 -10z m-1262 -24 c4
-10 18 -13 46 -11 29 2 39 0 34 -8 -4 -7 2 -5 12 3 10 8 16 10 12 3 -9 -15 54
-22 203 -22 63 -1 125 -1 137 -1 12 0 25 -5 28 -10 3 -5 -33 -8 -92 -5 -54 2
-136 4 -183 5 -100 2 -240 29 -240 48 0 17 37 15 43 -2z m1131 1 c16 4 15 1
-6 -10 -34 -19 -94 -25 -109 -10 -8 8 2 10 38 7 26 -2 42 -1 36 2 -7 3 -13 10
-13 15 0 6 6 7 16 1 9 -5 26 -7 38 -5z m83 7 c-3 -3 -12 -4 -19 -1 -8 3 -5 6
6 6 11 1 17 -2 13 -5z m-702 -54 c3 -5 1 -10 -4 -10 -6 0 -11 5 -11 10 0 6 2
10 4 10 3 0 8 -4 11 -10z m120 1 c-3 -5 7 -12 22 -14 16 -3 -7 -4 -49 -4 -43
0 -76 3 -73 6 2 4 19 6 39 6 19 -1 33 2 30 7 -3 4 4 8 16 8 12 0 19 -4 15 -9z
m125 0 c0 -5 -15 -9 -34 -8 -19 0 -33 5 -30 9 7 11 64 10 64 -1z m150 0 c0 -4
-31 -9 -70 -9 -38 -1 -70 2 -70 6 0 4 32 9 70 10 39 1 70 -2 70 -7z m30 -1 c0
-5 -2 -10 -4 -10 -3 0 -8 5 -11 10 -3 6 -1 10 4 10 6 0 11 -4 11 -10z m67 4
c-3 -3 -12 -4 -19 -1 -8 3 -5 6 6 6 11 1 17 -2 13 -5z"/>
<path d="M7098 8373 c7 -3 16 -2 19 1 4 3 -2 6 -13 5 -11 0 -14 -3 -6 -6z"/>
<path d="M1780 5234 c0 -14 3 -14 15 -4 8 7 15 14 15 16 0 2 -7 4 -15 4 -8 0
-15 -7 -15 -16z"/>
<path d="M1670 500 c0 -5 5 -10 11 -10 5 0 7 5 4 10 -3 6 -8 10 -11 10 -2 0
-4 -4 -4 -10z"/>
</g>
</svg>
